<mxfile host="app.diagrams.net" modified="2023-11-06T12:14:29.981Z" agent="Mozilla/5.0 (Windows NT 10.0; Win64; x64) AppleWebKit/537.36 (KHTML, like Gecko) Chrome/119.0.0.0 Safari/537.36 Edg/119.0.0.0" etag="z5BWXLAmcUHyV0_ySwNC" version="22.0.8" type="device">
  <diagram name="Page-1" id="zpE-Z2c8u3h8Wuc9Kl_w">
    <mxGraphModel dx="1042" dy="577" grid="1" gridSize="10" guides="1" tooltips="1" connect="1" arrows="1" fold="1" page="1" pageScale="1" pageWidth="850" pageHeight="1100" math="0" shadow="0">
      <root>
        <mxCell id="0" />
        <mxCell id="1" parent="0" />
        <mxCell id="FvEcXibYeTowdbyZoMv4-4" value="&lt;font style=&quot;font-size: 13px;&quot;&gt;Server&lt;/font&gt;" style="rounded=1;whiteSpace=wrap;html=1;verticalAlign=bottom;horizontal=1;labelPosition=center;verticalLabelPosition=top;align=center;fillColor=none;" parent="1" vertex="1">
          <mxGeometry x="290" y="70" width="510" height="360" as="geometry" />
        </mxCell>
        <mxCell id="FvEcXibYeTowdbyZoMv4-21" value="&lt;font style=&quot;font-size: 13px;&quot;&gt;Frontend&lt;/font&gt;" style="rounded=0;whiteSpace=wrap;html=1;fillColor=#f8cecc;dashed=1;labelPosition=right;verticalLabelPosition=middle;align=left;verticalAlign=middle;strokeColor=#b85450;" parent="1" vertex="1">
          <mxGeometry x="350" y="525" width="390" height="90" as="geometry" />
        </mxCell>
        <mxCell id="FvEcXibYeTowdbyZoMv4-19" value="&lt;font style=&quot;font-size: 13px;&quot;&gt;Backend&lt;/font&gt;" style="rounded=0;whiteSpace=wrap;html=1;fillColor=#f5f5f5;dashed=1;labelPosition=right;verticalLabelPosition=middle;align=left;verticalAlign=middle;glass=0;fontColor=#333333;strokeColor=#666666;" parent="1" vertex="1">
          <mxGeometry x="340" y="90" width="390" height="320" as="geometry" />
        </mxCell>
        <mxCell id="FvEcXibYeTowdbyZoMv4-1" value="Yolo:bit" style="rounded=1;whiteSpace=wrap;html=1;" parent="1" vertex="1">
          <mxGeometry x="100" y="102.5" width="120" height="60" as="geometry" />
        </mxCell>
        <mxCell id="FvEcXibYeTowdbyZoMv4-2" value="Camera node" style="rounded=1;whiteSpace=wrap;html=1;" parent="1" vertex="1">
          <mxGeometry x="100" y="212.5" width="120" height="60" as="geometry" />
        </mxCell>
        <mxCell id="FvEcXibYeTowdbyZoMv4-3" value="Camera node" style="rounded=1;whiteSpace=wrap;html=1;" parent="1" vertex="1">
          <mxGeometry x="100" y="317.5" width="120" height="60" as="geometry" />
        </mxCell>
        <mxCell id="FvEcXibYeTowdbyZoMv4-5" value="Web UI" style="rounded=1;whiteSpace=wrap;html=1;" parent="1" vertex="1">
          <mxGeometry x="380" y="540" width="120" height="60" as="geometry" />
        </mxCell>
        <mxCell id="FvEcXibYeTowdbyZoMv4-6" value="Mobile UI" style="rounded=1;whiteSpace=wrap;html=1;" parent="1" vertex="1">
          <mxGeometry x="580" y="540" width="120" height="60" as="geometry" />
        </mxCell>
        <mxCell id="FvEcXibYeTowdbyZoMv4-15" style="edgeStyle=orthogonalEdgeStyle;rounded=0;orthogonalLoop=1;jettySize=auto;html=1;exitX=0.25;exitY=1;exitDx=0;exitDy=0;entryX=0;entryY=0.75;entryDx=0;entryDy=0;" parent="1" source="FvEcXibYeTowdbyZoMv4-7" target="FvEcXibYeTowdbyZoMv4-9" edge="1">
          <mxGeometry relative="1" as="geometry" />
        </mxCell>
        <mxCell id="FvEcXibYeTowdbyZoMv4-16" value="Listener" style="edgeLabel;html=1;align=center;verticalAlign=middle;resizable=0;points=[];" parent="FvEcXibYeTowdbyZoMv4-15" vertex="1" connectable="0">
          <mxGeometry x="-0.4433" y="-1" relative="1" as="geometry">
            <mxPoint as="offset" />
          </mxGeometry>
        </mxCell>
        <mxCell id="FvEcXibYeTowdbyZoMv4-7" value="MQTT broker" style="rounded=0;whiteSpace=wrap;html=1;" parent="1" vertex="1">
          <mxGeometry x="380" y="110" width="120" height="60" as="geometry" />
        </mxCell>
        <mxCell id="FvEcXibYeTowdbyZoMv4-8" value="SQL database" style="rounded=0;whiteSpace=wrap;html=1;" parent="1" vertex="1">
          <mxGeometry x="580" y="110" width="120" height="60" as="geometry" />
        </mxCell>
        <mxCell id="FvEcXibYeTowdbyZoMv4-17" style="edgeStyle=orthogonalEdgeStyle;rounded=0;orthogonalLoop=1;jettySize=auto;html=1;exitX=0;exitY=0.25;exitDx=0;exitDy=0;" parent="1" source="FvEcXibYeTowdbyZoMv4-9" target="FvEcXibYeTowdbyZoMv4-7" edge="1">
          <mxGeometry relative="1" as="geometry" />
        </mxCell>
        <mxCell id="FvEcXibYeTowdbyZoMv4-18" value="Result" style="edgeLabel;html=1;align=center;verticalAlign=middle;resizable=0;points=[];" parent="FvEcXibYeTowdbyZoMv4-17" vertex="1" connectable="0">
          <mxGeometry x="0.4406" y="-1" relative="1" as="geometry">
            <mxPoint as="offset" />
          </mxGeometry>
        </mxCell>
        <mxCell id="FvEcXibYeTowdbyZoMv4-9" value="AI model" style="rounded=0;whiteSpace=wrap;html=1;" parent="1" vertex="1">
          <mxGeometry x="485" y="212.5" width="120" height="60" as="geometry" />
        </mxCell>
        <mxCell id="rIYWZfjc-Th4secKry3P-1" style="edgeStyle=orthogonalEdgeStyle;rounded=0;orthogonalLoop=1;jettySize=auto;html=1;entryX=0.5;entryY=1;entryDx=0;entryDy=0;startArrow=classic;startFill=1;" edge="1" parent="1" source="FvEcXibYeTowdbyZoMv4-20" target="FvEcXibYeTowdbyZoMv4-8">
          <mxGeometry relative="1" as="geometry">
            <Array as="points">
              <mxPoint x="640" y="365" />
            </Array>
          </mxGeometry>
        </mxCell>
        <mxCell id="FvEcXibYeTowdbyZoMv4-20" value="Web server" style="rounded=0;whiteSpace=wrap;html=1;" parent="1" vertex="1">
          <mxGeometry x="485" y="335" width="120" height="60" as="geometry" />
        </mxCell>
        <mxCell id="FvEcXibYeTowdbyZoMv4-25" style="edgeStyle=orthogonalEdgeStyle;rounded=0;orthogonalLoop=1;jettySize=auto;html=1;entryX=0.294;entryY=1;entryDx=0;entryDy=0;entryPerimeter=0;" parent="1" source="FvEcXibYeTowdbyZoMv4-5" target="FvEcXibYeTowdbyZoMv4-4" edge="1">
          <mxGeometry relative="1" as="geometry" />
        </mxCell>
        <mxCell id="FvEcXibYeTowdbyZoMv4-27" value="HTTPS" style="edgeLabel;html=1;align=center;verticalAlign=middle;resizable=0;points=[];" parent="FvEcXibYeTowdbyZoMv4-25" vertex="1" connectable="0">
          <mxGeometry x="-0.1026" y="1" relative="1" as="geometry">
            <mxPoint x="1" as="offset" />
          </mxGeometry>
        </mxCell>
        <mxCell id="FvEcXibYeTowdbyZoMv4-26" style="edgeStyle=orthogonalEdgeStyle;rounded=0;orthogonalLoop=1;jettySize=auto;html=1;entryX=0.687;entryY=1.001;entryDx=0;entryDy=0;entryPerimeter=0;" parent="1" source="FvEcXibYeTowdbyZoMv4-6" target="FvEcXibYeTowdbyZoMv4-4" edge="1">
          <mxGeometry relative="1" as="geometry" />
        </mxCell>
        <mxCell id="FvEcXibYeTowdbyZoMv4-28" value="HTTPS, MQTT" style="edgeLabel;html=1;align=center;verticalAlign=middle;resizable=0;points=[];" parent="FvEcXibYeTowdbyZoMv4-26" vertex="1" connectable="0">
          <mxGeometry x="-0.2151" relative="1" as="geometry">
            <mxPoint as="offset" />
          </mxGeometry>
        </mxCell>
        <mxCell id="FvEcXibYeTowdbyZoMv4-29" style="edgeStyle=orthogonalEdgeStyle;rounded=0;orthogonalLoop=1;jettySize=auto;html=1;entryX=0.002;entryY=0.481;entryDx=0;entryDy=0;entryPerimeter=0;" parent="1" source="FvEcXibYeTowdbyZoMv4-2" target="FvEcXibYeTowdbyZoMv4-4" edge="1">
          <mxGeometry relative="1" as="geometry" />
        </mxCell>
        <mxCell id="FvEcXibYeTowdbyZoMv4-33" value="MQTT" style="edgeLabel;html=1;align=center;verticalAlign=middle;resizable=0;points=[];" parent="FvEcXibYeTowdbyZoMv4-29" vertex="1" connectable="0">
          <mxGeometry x="-0.1398" y="1" relative="1" as="geometry">
            <mxPoint y="1" as="offset" />
          </mxGeometry>
        </mxCell>
        <mxCell id="FvEcXibYeTowdbyZoMv4-30" style="edgeStyle=orthogonalEdgeStyle;rounded=0;orthogonalLoop=1;jettySize=auto;html=1;entryX=-0.001;entryY=0.772;entryDx=0;entryDy=0;entryPerimeter=0;" parent="1" source="FvEcXibYeTowdbyZoMv4-3" target="FvEcXibYeTowdbyZoMv4-4" edge="1">
          <mxGeometry relative="1" as="geometry" />
        </mxCell>
        <mxCell id="FvEcXibYeTowdbyZoMv4-32" value="MQTT" style="edgeLabel;html=1;align=center;verticalAlign=middle;resizable=0;points=[];" parent="FvEcXibYeTowdbyZoMv4-30" vertex="1" connectable="0">
          <mxGeometry x="-0.1183" y="3" relative="1" as="geometry">
            <mxPoint y="3" as="offset" />
          </mxGeometry>
        </mxCell>
        <mxCell id="FvEcXibYeTowdbyZoMv4-31" style="edgeStyle=orthogonalEdgeStyle;rounded=0;orthogonalLoop=1;jettySize=auto;html=1;entryX=0.004;entryY=0.171;entryDx=0;entryDy=0;entryPerimeter=0;" parent="1" edge="1">
          <mxGeometry relative="1" as="geometry">
            <mxPoint x="220" y="120.05904761904759" as="sourcePoint" />
            <mxPoint x="292.0400000000001" y="119.99999999999994" as="targetPoint" />
            <Array as="points">
              <mxPoint x="255" y="121.44" />
            </Array>
          </mxGeometry>
        </mxCell>
        <mxCell id="FvEcXibYeTowdbyZoMv4-34" value="MQTT" style="edgeLabel;html=1;align=center;verticalAlign=middle;resizable=0;points=[];" parent="FvEcXibYeTowdbyZoMv4-31" vertex="1" connectable="0">
          <mxGeometry x="-0.1319" y="2" relative="1" as="geometry">
            <mxPoint y="2" as="offset" />
          </mxGeometry>
        </mxCell>
        <mxCell id="FvEcXibYeTowdbyZoMv4-37" style="edgeStyle=orthogonalEdgeStyle;rounded=0;orthogonalLoop=1;jettySize=auto;html=1;exitX=0.004;exitY=0.216;exitDx=0;exitDy=0;entryX=1;entryY=0.75;entryDx=0;entryDy=0;exitPerimeter=0;" parent="1" source="FvEcXibYeTowdbyZoMv4-4" target="FvEcXibYeTowdbyZoMv4-1" edge="1">
          <mxGeometry relative="1" as="geometry" />
        </mxCell>
        <mxCell id="FvEcXibYeTowdbyZoMv4-38" value="MQTT" style="edgeLabel;html=1;align=center;verticalAlign=middle;resizable=0;points=[];" parent="FvEcXibYeTowdbyZoMv4-37" vertex="1" connectable="0">
          <mxGeometry x="0.1217" y="1" relative="1" as="geometry">
            <mxPoint x="8" as="offset" />
          </mxGeometry>
        </mxCell>
        <mxCell id="rIYWZfjc-Th4secKry3P-2" value="&lt;font style=&quot;font-size: 13px;&quot;&gt;Update, get data&lt;/font&gt;" style="text;html=1;align=center;verticalAlign=middle;resizable=0;points=[];autosize=1;strokeColor=none;fillColor=none;" vertex="1" parent="1">
          <mxGeometry x="580" y="300" width="120" height="30" as="geometry" />
        </mxCell>
        <mxCell id="rIYWZfjc-Th4secKry3P-4" style="edgeStyle=orthogonalEdgeStyle;rounded=0;orthogonalLoop=1;jettySize=auto;html=1;entryX=0.077;entryY=1.08;entryDx=0;entryDy=0;entryPerimeter=0;startArrow=none;startFill=0;" edge="1" parent="1" source="FvEcXibYeTowdbyZoMv4-20" target="FvEcXibYeTowdbyZoMv4-7">
          <mxGeometry relative="1" as="geometry">
            <Array as="points">
              <mxPoint x="389" y="365" />
            </Array>
          </mxGeometry>
        </mxCell>
        <mxCell id="rIYWZfjc-Th4secKry3P-5" value="&lt;font style=&quot;font-size: 13px;&quot;&gt;Command, request&lt;/font&gt;" style="edgeLabel;html=1;align=center;verticalAlign=middle;resizable=0;points=[];" vertex="1" connectable="0" parent="rIYWZfjc-Th4secKry3P-4">
          <mxGeometry x="0.12" y="1" relative="1" as="geometry">
            <mxPoint x="12" y="-1" as="offset" />
          </mxGeometry>
        </mxCell>
      </root>
    </mxGraphModel>
  </diagram>
</mxfile>
